<?xml version="1.0" encoding="utf-8"?>
<!-- Generator: Adobe Illustrator 16.0.0, SVG Export Plug-In . SVG Version: 6.00 Build 0)  -->
<!DOCTYPE svg PUBLIC "-//W3C//DTD SVG 1.1//EN" "http://www.w3.org/Graphics/SVG/1.1/DTD/svg11.dtd">
<svg version="1.1" id="Layer_1" xmlns="http://www.w3.org/2000/svg" xmlns:xlink="http://www.w3.org/1999/xlink" x="0px" y="0px"
	 width="512px" height="274.667px" viewBox="0 119.166 512 274.667" enable-background="new 0 119.166 512 274.667"
	 xml:space="preserve">
<g>
	<path fill="#FFFFFF" stroke="#FDFDFD" stroke-miterlimit="10" d="M483.22,243.763c-4.861-5.755-10.211-11.178-15.566-16.494
		c-28.918-28.719-62.145-54.323-98.498-72.899c-23.225-11.858-48.083-21.444-73.842-26.038c-13.103-2.344-25.943-3.546-39.412-3.57
		c-13.098,0.023-26.208,1.227-39.31,3.57c-25.758,4.592-50.565,14.18-73.789,26.038c-36.356,18.575-69.557,44.181-98.474,72.899
		c-5.357,5.314-10.692,10.74-15.553,16.494c-6.479,7.69-6.479,16.785,0,24.477c14.817,17.545,32.432,33.158,50.353,47.433
		c38.593,30.746,82.725,56.46,131.447,66.825c15.068,3.194,30.188,4.754,45.327,4.739c15.324,0.016,30.358-1.543,45.425-4.739
		c48.723-10.365,92.954-36.079,131.548-66.825c17.921-14.273,35.532-29.889,50.349-47.433
		C489.705,260.55,489.698,251.456,483.22,243.763z M255.902,345.346c-49.258-0.095-89.16-40.05-89.16-89.347
		c0-49.273,39.902-89.242,89.16-89.336c49.688,0.094,89.159,40.063,89.159,89.336C345.06,305.295,305.59,345.248,255.902,345.346z"
		/>
	<path fill="#FFFFFF" stroke="#FDFDFD" stroke-miterlimit="10" d="M255.872,221.443c-19.093,0-34.546,15.465-34.546,34.555
		c0,19.099,15.454,34.561,34.546,34.561c19.09,0,34.562-15.462,34.562-34.561C290.434,236.908,274.962,221.443,255.872,221.443z"/>
</g>
</svg>
