<?xml version="1.0" encoding="utf-8"?>
<!-- Generator: Adobe Illustrator 16.0.0, SVG Export Plug-In . SVG Version: 6.00 Build 0)  -->
<!DOCTYPE svg PUBLIC "-//W3C//DTD SVG 1.1//EN" "http://www.w3.org/Graphics/SVG/1.1/DTD/svg11.dtd">
<svg version="1.1" id="Layer_1" xmlns="http://www.w3.org/2000/svg" xmlns:xlink="http://www.w3.org/1999/xlink" x="0px" y="0px"
	 width="255.168px" height="84.833px" viewBox="0 0 255.168 84.833" enable-background="new 0 0 255.168 84.833"
	 xml:space="preserve">
<g>
	<path fill="#F72200" d="M9.814,29.777c9.162-6.629,17.23-9.423,23.963-9.852c-7.392-0.49-16.739,1.97-27.634,9.852
		c-18.689,13.518,9.29,34.931,30.201,47.793c3.09,1.331,6.229,2.492,9.327,3.381C24.767,68.797-10.631,44.564,9.814,29.777z"/>
	<path fill="#F72200" d="M107.337,6.96c-7.525-5.528-14.184-7.378-20-6.883C92.24,0.49,97.678,2.561,103.666,6.96
		c27.517,20.21-18.207,59.196-38.759,74.771c2.289-0.599,4.573-1.426,6.827-2.425C93.392,62.419,133.518,26.189,107.337,6.96z"/>
	<path fill="#260500" d="M96.579,8.221C68.089-15.951,54.817,34.379,54.817,34.379c-0.324-8.939-14.892-23.841-37.875-4.637
		C-6.043,48.948,57.407,85.039,57.407,85.039S125.066,32.392,96.579,8.221z"/>
	<path fill="#F72200" d="M117.329,36.45c1.611-2.015,2.998-4.167,4.161-6.455c-0.67-0.093-1.115-0.548-0.941-1.099
		c0.404-1.373,2.284-3.249,3.628-3.891c1.295-0.595,2.237-1.099,1.026,1.145l-1.744,2.838c1.522,0.092,3.089,0.184,4.702,0.092
		c2.683-0.138,1.608,1.419,0.043,3.25c-2.012,2.379-3.491,5.355-4.027,6.82c-0.718,2.059-0.045,3.342,1.433,2.563
		c1.431-0.824,4.787-3.708,6.623-6.363c0.224-0.319,0.804-0.044,0.58,0.368c-0.849,1.602-3.58,4.622-5.818,6.27
		c-0.802,0.642-2.235,1.282-3.491,1.282c-0.983,0-1.833-0.412-2.147-1.693c-0.807-2.975,2.147-6.316,3.803-8.057
		c0.674-0.777,2.732-2.793-0.355-3.297c-0.718-0.137-1.344-0.228-2.014-0.228c-1.611,2.335-3.132,4.714-4.924,6.958
		C117.418,37.547,116.656,37.319,117.329,36.45z"/>
	<path fill="#F72200" d="M134.106,32.147c0.491-1.421,0.939-2.564,1.565-2.7c0.583-0.047,1.345,0.09,1.566,0.548
		c0.269,0.55-0.222,1.42-0.896,2.839c-1.34,2.746-2.549,5.171-2.684,6.637c-0.313,1.967,0.583,3.021,2.06,2.242
		c1.434-0.824,4.79-3.708,6.668-6.363c0.223-0.319,0.763-0.044,0.535,0.368c-0.85,1.602-3.58,4.622-5.818,6.27
		c-1.432,1.1-4.742,2.198-5.638-0.55c-0.358-1.051,0.403-3.523,1.34-5.629c-0.4,0.504-0.802,1.19-1.743,2.289
		c-0.448,0.504-0.892-0.093-0.49-0.641c1.566-1.969,2.774-3.662,3.444-4.715C133.972,32.604,133.972,32.42,134.106,32.147z
		 M137.685,27.064c-0.804,0-1.923,0-1.923-0.959c0-0.23,2.417-2.062,2.687-2.289c1.834-1.511,0.715,0.091,0.715,1.005
		C139.164,25.326,138.131,27.064,137.685,27.064z"/>
	<path fill="#F72200" d="M147.215,54.484c-1.652,2.518-4.295,5.586-7.337,5.036c-0.313-0.091-0.673-0.185-0.897-0.32
		c-2.819-1.42-1.475-4.165,0.897-7.006c2.24-2.653,6.89-5.812,9.798-7.78c2.063-4.301,3.807-8.561,4.477-10.665
		c-1.209,1.511-2.91,3.57-3.58,4.304c-1.656,1.875-4.25,4.576-6.488,4.576c-0.941,0-2.194-0.642-2.862-1.555
		c-3.269-4.303,6.888-11.172,10.245-11.994c1.301-0.366,3.311-0.459,4.479,0.367c0.447,0.318,0.803,0.775,0.803,1.234
		c0,0.32-0.133,0.32-0.355,0.229c-0.447-0.778-1.344-0.87-2.195-0.87c-2.326,0-5.463,1.832-7.742,3.938
		c-1.342,1.189-5.012,5.538-3.58,7.553c0.492,0.732,2.596-0.457,4.387-1.877c2.818-2.243,5.729-5.4,7.385-7.462
		c0.402-1.054,3.221,0.185,2.996,0.686c-1.119,2.519-2.775,5.905-4.432,9.521c1.164-0.64,5.104-3.937,7.879-7.231
		c1.162-1.373,1.389-0.273,0.223,1.098c-1.969,2.29-7.252,7.141-8.996,8.148C150.395,48.442,148.602,52.242,147.215,54.484z
		 M140.908,52.928c-1.791,1.832-2.911,4.578-1.478,5.356c0.402,0.229,1.075,0.092,2.147-0.778c3.401-2.883,5.37-7.461,7.249-11.353
		C146.499,47.939,143.235,50.503,140.908,52.928z M155.721,20.84c1.16-1.557,2.461-2.884,2.818-3.112
		c0.492-0.319,0.492,0.136,0.492,0.274c0,0.093-0.447,0.642-1.029,1.281c-0.805,1.008-1.609,2.107-2.014,3.479
		c-0.492,1.556,0.535,1.327,0.178,2.427c-0.178,0.549-0.984,0.458-1.209,0.458c-0.76,0-1.207-1.007-1.207-1.511
		C153.75,23.496,154.735,22.076,155.721,20.84z"/>
	<path fill="#F72200" d="M162.829,32.147c0.492-1.421,0.939-2.564,1.566-2.7c0.58-0.047,1.344,0.09,1.566,0.548
		c0.266,0.55-0.223,1.42-0.896,2.839c-1.342,2.746-2.551,5.171-2.684,6.637c-0.313,1.967,0.58,3.021,2.059,2.242
		c1.434-0.824,4.791-3.708,6.668-6.363c0.223-0.319,0.76-0.044,0.533,0.368c-0.846,1.602-3.578,4.622-5.816,6.27
		c-1.43,1.1-4.742,2.198-5.639-0.55c-0.357-1.051,0.404-3.523,1.344-5.629c-0.402,0.504-0.805,1.19-1.746,2.289
		c-0.447,0.504-0.893-0.093-0.488-0.641c1.564-1.969,2.773-3.662,3.441-4.715C162.694,32.604,162.694,32.42,162.829,32.147z
		 M166.407,27.064c-0.805,0-1.924,0-1.924-0.959c0-0.23,2.418-2.062,2.689-2.289c1.83-1.511,0.713,0.091,0.713,1.005
		C167.885,25.326,166.858,27.064,166.407,27.064z"/>
	<path fill="#F72200" d="M178,33.564c-2.553,2.383-6.313,8.423-7.162,8.928c-0.451,0.228-2.82,1.326-2.373,0.457
		c0.357-0.916,2.998-8.742,3.891-11.26c0.229-0.551,0.047-2.701,2.375-2.059c0.717,0.182,0.672,0.592,0.314,1.326
		c-1.119,2.518-2.553,6.59-3.09,8.055c1.879-2.38,5.773-6.682,8.236-8.651c2.594-1.966,4.473-1.646,3.58,1.101
		c-0.494,1.555-1.523,2.975-2.105,4.531c-0.58,1.373-0.895,2.609-1.029,3.479c-0.268,1.967,0.629,3.021,2.061,2.242
		c1.432-0.824,4.832-3.708,6.666-6.363c0.227-0.319,0.809-0.044,0.582,0.368c-0.85,1.602-3.58,4.622-5.816,6.27
		c-0.852,0.642-2.328,1.282-3.582,1.146c-4.697-0.459-1.029-7.736,0.09-9.842C181.444,31.826,181.266,30.682,178,33.564z"/>
	<path fill="#F72200" d="M188.196,41.074c-3.311-4.303,6.895-11.172,10.25-11.994c1.342-0.366,3.311-0.459,4.473,0.367
		c0.451,0.318,0.764,0.775,0.764,1.234c0,0.32-0.047,0.32-0.27,0.229c-0.494-0.778-1.387-0.87-2.236-0.87
		c-2.328,0-5.461,1.832-7.789,3.938c-1.252,1.189-4.965,5.538-3.58,7.553c0.625,0.915,2.82-0.732,3.449-1.236
		c1.162-1.006,3.176-2.748,4.336-4.029c0.629-0.686,4.033-4.532,4.434-4.532c0.449,0,2.193,0.367,1.789,1.101
		c-1.611,2.334-2.504,5.171-2.686,6.637c-0.268,1.967,0.627,3.021,2.061,2.242c1.475-0.824,4.832-3.708,6.668-6.363
		c0.223-0.319,0.762-0.044,0.537,0.368c-0.805,1.602-3.58,4.622-5.816,6.27c-1.434,1.1-4.746,2.198-5.643-0.55
		c-0.402-1.234,0.137-3.98,0.717-5.584c-0.758,0.367-5.014,6.775-8.592,6.775C190.122,42.629,188.87,41.987,188.196,41.074z
		 M197.102,26.013c-2.059,0.138-0.49-1.647,0.402-1.647c0.986,0,4.789-0.047,6.623-0.047c1.48,0,2.418,0.276,2.463,0.552
		c0,0.595-2.059,0.685-2.371,0.777C202.069,25.783,198.624,25.969,197.102,26.013z"/>
	<path fill="#F72200" d="M210.879,38.371c-0.268,2.244,0.359,4.716,2.953,3.205c1.746-0.961,5.059-4.029,6.578-6.227
		c0.227-0.319,0.762-0.044,0.494,0.459c-0.895,1.603-3.715,4.623-5.955,6.317c-0.893,0.687-1.922,1.007-2.773,1.007
		c-2.684,0-3.49-1.557-3.398-3.662c0.266-4.576,5.684-15.516,8.594-19.455c1.697-2.242,3.711-4.989,6.756-4.989
		c2.014,0,3.49,1.603,1.879,4.579c-3.672,6.545-8.949,11.9-14.545,16.66C211.149,37.184,210.926,37.914,210.879,38.371z
		 M212.131,34.436c4.387-3.068,10.295-10.986,12.668-15.654c1.207-2.242,0.178-3.297-1.791-1.784
		c-2.73,2.149-5.012,5.446-6.938,8.972c-0.492,0.914-1.654,3.248-2.686,5.309C212.893,32.33,212.491,33.429,212.131,34.436z"/>
	<path fill="#F72200" d="M219.153,41.074c-3.311-4.303,6.896-11.172,10.252-11.994c1.342-0.366,3.311-0.459,4.473,0.367
		c0.449,0.318,0.764,0.775,0.764,1.234c0,0.32-0.047,0.32-0.27,0.229c-0.494-0.778-1.387-0.87-2.24-0.87
		c-2.326,0-5.457,1.832-7.787,3.938c-1.25,1.189-4.965,5.538-3.578,7.553c0.625,0.915,2.82-0.732,3.447-1.236
		c1.162-1.006,3.176-2.748,4.34-4.029c0.625-0.686,4.029-4.532,4.432-4.532c0.449,0,2.193,0.367,1.789,1.101
		c-1.613,2.334-2.506,5.171-2.684,6.637c-0.271,1.967,0.625,3.021,2.057,2.242c1.479-0.824,4.834-3.708,6.67-6.363
		c0.223-0.319,0.76-0.044,0.534,0.368c-0.803,1.602-3.579,4.622-5.815,6.27c-1.434,1.1-4.744,2.198-5.641-0.55
		c-0.402-1.234,0.135-3.98,0.715-5.584c-0.76,0.367-5.012,6.775-8.592,6.775C221.077,42.629,219.827,41.987,219.153,41.074z"/>
	<path fill="#F72200" d="M240.674,42.584c-0.672,0.916-0.268,1.83,1.387,1.373c2.236-0.688,5.553-3.296,5.553-5.952
		c0-1.28-2.51-2.243-3.359-2.837c-0.672-0.459-1.252-0.961-1.52-1.648c-0.494,0.87-1.211,1.969-2.018,3.159
		c-0.4,0.505-0.938,0.093-0.625-0.413c1.299-1.83,2.106-3.388,2.418-4.302c0.447-3.569,6.309-6.546,9.531-6.546
		c2.016,0,3.803,0.96,2.773,3.112c-0.27,0.642-0.758,1.145-1.385,1.556c-0.227,0.184-0.805-0.091-0.227-0.686
		c0.717-0.732,1.299-2.336,0.047-2.471c-1.387-0.092-3.803,0.914-4.877,1.465c-1.479,0.732-2.732,1.691-3.852,3.295
		c-0.939,1.326-0.762,2.242,0.494,3.02c3.041,1.832,6.848,2.93,3.537,6.729c-1.525,1.74-4.074,2.84-6.268,3.342
		c-0.852,0.184-2.731,0.459-3.223-0.502c-0.314-0.459,0.09-1.235,0.582-1.831c0.447-0.459,1.299-0.961,2.147-1.328
		c0.314-0.091,0.406,0.319,0.092,0.458C241.392,41.805,240.944,42.218,240.674,42.584z"/>
	<g>
		<path fill="#260500" d="M95.057,60.359c-1.55,1.567-3.122,3.104-4.706,4.598h0.782c3.934,0,6.788,3.027,6.788,7.442
			c0,4.379-2.715,7.37-6.511,7.37H86.99V68.059c-2.093,1.892-4.173,3.702-6.194,5.41v11.357h10.231
			c7.834,0,13.194-5.093,13.194-12.463C104.221,66.254,100.617,61.752,95.057,60.359z"/>
	</g>
	<path fill="#260500" d="M112.36,80.232l-1.775,4.594h-6.369L114.728,59.9h6.37l10.269,24.926h-6.614l-1.741-4.594H112.36z
		 M112.953,56.59v-4.13h9.677v4.13H112.953z M117.722,66.203l-3.551,9.223h7.03L117.722,66.203z"/>
	<path fill="#260500" d="M138.742,84.826L129.271,59.9h6.614l6.229,18.338l6.231-18.338h6.371l-9.572,24.926H138.742z"/>
	<path fill="#260500" d="M160.768,80.232l-1.773,4.594h-6.371L163.135,59.9h6.371l10.27,24.926h-6.615l-1.74-4.594H160.768z
		 M166.131,66.203l-3.553,9.223h7.031L166.131,66.203z"/>
	<path fill="#260500" d="M199.053,84.826l-11.209-15.347v15.347h-5.814V59.9h5.463l11.246,15.383V59.9h5.777v24.926H199.053z"/>
	<path fill="#260500" d="M214.917,80.232l-1.775,4.594h-6.369L217.284,59.9h6.371l10.271,24.926h-6.617l-1.74-4.594H214.917z
		 M220.278,66.203l-3.551,9.223h7.031L220.278,66.203z"/>
	<path fill="#260500" d="M255.046,62.394l-2.33,4.948c-2.578-1.529-5.814-2.598-7.797-2.598c-1.602,0-2.682,0.604-2.682,1.815
		c0,4.308,12.879,1.853,12.879,10.86c0,4.984-4.316,7.619-9.748,7.619c-4.072,0-8.249-1.566-11.139-3.987l2.404-4.878
		c2.504,2.243,6.264,3.738,8.805,3.738c1.951,0,3.168-0.748,3.168-2.173c0-4.415-12.881-1.78-12.881-10.61
		c0-4.593,3.865-7.512,9.713-7.512C248.954,59.617,252.542,60.721,255.046,62.394z"/>
</g>
</svg>
